<svg fill="none" xmlns="http://www.w3.org/2000/svg" viewBox="0 0 60 74">
    <path d="M28.406 70.5c4.117 2.265 8.13 3.397 11.836 3.397 3.19 0 6.072-.823 8.748-2.47l9.675-5.97c.308-.205.617-.514.72-.926a1.43 1.43 0 00-.206-1.132l-8.336-13.585c-.206-.31-.515-.618-.927-.72-.411-.104-.823 0-1.132.205l-9.777 5.97c-1.544.926-3.397 1.235-5.25.823-1.852-.412-3.396-1.441-4.322-2.985l-13.38-21.304c-1.955-3.088-.926-7.205 2.162-9.057l10.086-6.279c.72-.411.926-1.44.515-2.16L20.378.72c-.412-.72-1.44-.927-2.161-.515L8.233 6.484C-3.087 13.38-2.677 31.7 9.16 50.843c5.454 8.851 12.247 15.85 19.246 19.658zM9.777 9.058l8.749-5.455 6.792 10.91-8.85 5.455c-4.53 2.779-5.97 8.748-3.191 13.38l13.276 21.51c1.338 2.161 3.602 3.705 6.278 4.322a9.974 9.974 0 007.514-1.235l8.44-5.248L55.68 63.81l-8.337 5.146c-6.072 3.808-12.865 1.44-17.496-1.03-6.484-3.602-12.968-10.291-18.114-18.628C.926 31.597.103 15.13 9.777 9.057z" fill="#85C2E1" stroke="#85C2E1"/>
</svg>
